<?xml version="1.0" encoding="utf-8"?>
<!-- Generator: Adobe Illustrator 26.1.0, SVG Export Plug-In . SVG Version: 6.00 Build 0)  -->
<svg version="1.1" id="Layer_1" xmlns="http://www.w3.org/2000/svg" xmlns:xlink="http://www.w3.org/1999/xlink" x="0px" y="0px"
	 viewBox="0 0 17 17" style="enable-background:new 0 0 17 17;" xml:space="preserve">
<style type="text/css">
	.st0{clip-path:url(#SVGID_00000051367173124345198410000007330615489087726486_);}
	.st1{fill:#039ED8;}
</style>
<g>
	<defs>
		<rect id="SVGID_1_" x="0.3" y="0.4" width="16" height="16"/>
	</defs>
	<clipPath id="SVGID_00000152241321662976966020000005976040136826700472_">
		<use xlink:href="#SVGID_1_"  style="overflow:visible;"/>
	</clipPath>
	<g style="clip-path:url(#SVGID_00000152241321662976966020000005976040136826700472_);">
		<path class="st1" d="M14.3,8.7V7.8c0-1.6-0.6-3.1-1.8-4.2c-1.1-1.1-2.7-1.8-4.2-1.8S5.2,2.4,4.1,3.5C3,4.7,2.3,6.2,2.3,7.8v0.9
			C1.6,9,1.1,9.6,0.7,10.2c-0.3,0.7-0.5,1.5-0.3,2.2c0.2,0.7,0.6,1.4,1.2,1.9c0.6,0.5,1.3,0.7,2.1,0.7H5V8.4H3.7V7.8
			c0-1.2,0.5-2.4,1.4-3.3s2.1-1.4,3.3-1.4s2.4,0.5,3.3,1.4C12.5,5.3,13,6.5,13,7.8v0.7h-1.3v5.3H9v1.3h4c0.8,0,1.5-0.3,2.1-0.7
			c0.6-0.5,1-1.2,1.2-1.9c0.2-0.7,0.1-1.5-0.3-2.2C15.6,9.6,15,9,14.3,8.7z M3.7,13.8c-0.5,0-1-0.2-1.4-0.6
			c-0.4-0.4-0.6-0.9-0.6-1.4c0-0.5,0.2-1,0.6-1.4C2.6,10,3.1,9.8,3.7,9.8V13.8z M13,13.8v-4c0.5,0,1,0.2,1.4,0.6
			c0.4,0.4,0.6,0.9,0.6,1.4c0,0.5-0.2,1-0.6,1.4C14,13.6,13.5,13.8,13,13.8z"/>
	</g>
</g>
</svg>
