<?xml version="1.0" encoding="utf-8"?>
<!-- Generator: Adobe Illustrator 26.1.0, SVG Export Plug-In . SVG Version: 6.00 Build 0)  -->
<svg version="1.1" id="Layer_1" xmlns="http://www.w3.org/2000/svg" xmlns:xlink="http://www.w3.org/1999/xlink" x="0px" y="0px"
	 viewBox="0 0 16 17" style="enable-background:new 0 0 16 17;" xml:space="preserve">
<style type="text/css">
	.st0{clip-path:url(#SVGID_00000170277867349442703010000009797190372599200185_);}
	.st1{fill:#039ED8;}
</style>
<g>
	<defs>
		<rect id="SVGID_1_" y="0.6" width="16" height="16"/>
	</defs>
	<clipPath id="SVGID_00000070826968780181121950000010738508916256043421_">
		<use xlink:href="#SVGID_1_"  style="overflow:visible;"/>
	</clipPath>
	<g style="clip-path:url(#SVGID_00000070826968780181121950000010738508916256043421_);">
		<path class="st1" d="M1,5.1C0.7,5.1,0.5,5.3,0.4,5.4C0.2,5.6,0.1,5.8,0,6C0,6.3,0,6.5,0,6.7c0.1,0.2,0.2,0.4,0.3,0.6l2.3,2.3V14
			h4.4l2.3,2.3c0.1,0.1,0.3,0.2,0.4,0.3c0.2,0.1,0.3,0.1,0.5,0.1c0.1,0,0.2,0,0.3,0c0.2-0.1,0.4-0.2,0.6-0.3
			c0.2-0.2,0.3-0.4,0.3-0.6l4.4-15L1,5.1z M1.3,6.4L12.7,3L4,11.7V9L1.3,6.4z M10.3,15.3l-2.7-2.7H4.9L13.6,4L10.3,15.3z"/>
	</g>
</g>
</svg>
