<?xml version="1.0" encoding="utf-8"?>
<!-- Generator: Adobe Illustrator 26.1.0, SVG Export Plug-In . SVG Version: 6.00 Build 0)  -->
<svg version="1.1" id="Layer_1" xmlns="http://www.w3.org/2000/svg" xmlns:xlink="http://www.w3.org/1999/xlink" x="0px" y="0px"
	 viewBox="0 0 16 17" style="enable-background:new 0 0 16 17;" xml:space="preserve">
<style type="text/css">
	.st0{clip-path:url(#SVGID_00000076592799918925364610000017001313199830236337_);}
	.st1{fill:#039ED8;}
</style>
<g>
	<defs>
		<rect id="SVGID_1_" y="0.8" width="16" height="16"/>
	</defs>
	<clipPath id="SVGID_00000165934987127828675990000002256370390529955996_">
		<use xlink:href="#SVGID_1_"  style="overflow:visible;"/>
	</clipPath>
	<g style="clip-path:url(#SVGID_00000165934987127828675990000002256370390529955996_);">
		<path class="st1" d="M8,16.8l-0.5-0.4C6.9,15.8,1.3,11,1.3,7.4c0-1.8,0.7-3.5,2-4.8c1.3-1.3,3-2,4.8-2s3.5,0.7,4.8,2
			c1.3,1.3,2,3,2,4.8c0,3.5-5.6,8.4-6.3,8.9L8,16.8z M8,2.1c-1.4,0-2.7,0.6-3.7,1.5c-1,1-1.5,2.3-1.5,3.7c0,2.2,3.5,5.8,5.3,7.4
			c1.8-1.6,5.3-5.2,5.3-7.4c0-1.4-0.6-2.7-1.5-3.7S9.4,2.1,8,2.1z"/>
		<path class="st1" d="M8,10.1c-0.5,0-1-0.2-1.5-0.4c-0.4-0.3-0.8-0.7-1-1.2C5.3,8,5.3,7.4,5.4,6.9c0.1-0.5,0.4-1,0.7-1.4
			S7,4.9,7.5,4.8C8,4.7,8.5,4.8,9,5c0.5,0.2,0.9,0.5,1.2,1c0.3,0.4,0.4,1,0.4,1.5c0,0.7-0.3,1.4-0.8,1.9C9.4,9.8,8.7,10.1,8,10.1z
			 M8,6.1c-0.3,0-0.5,0.1-0.7,0.2C7,6.5,6.9,6.7,6.8,6.9C6.7,7.2,6.6,7.4,6.7,7.7c0.1,0.3,0.2,0.5,0.4,0.7s0.4,0.3,0.7,0.4
			c0.3,0.1,0.5,0,0.8-0.1C8.8,8.5,9,8.4,9.1,8.2c0.1-0.2,0.2-0.5,0.2-0.7c0-0.4-0.1-0.7-0.4-0.9C8.7,6.2,8.4,6.1,8,6.1z"/>
	</g>
</g>
</svg>
