<?xml version="1.0" encoding="utf-8"?>
<!-- Generator: Adobe Illustrator 26.1.0, SVG Export Plug-In . SVG Version: 6.00 Build 0)  -->
<svg version="1.1" id="Layer_1" xmlns="http://www.w3.org/2000/svg" xmlns:xlink="http://www.w3.org/1999/xlink" x="0px" y="0px"
	 viewBox="0 0 17 17" style="enable-background:new 0 0 17 17;" xml:space="preserve">
<style type="text/css">
	.st0{clip-path:url(#SVGID_00000115487709526553147680000006250088499008317325_);}
	.st1{fill:#039ED8;}
</style>
<g>
	<defs>
		<rect id="SVGID_1_" x="0.7" y="0.9" width="16" height="16"/>
	</defs>
	<clipPath id="SVGID_00000180365829920998031290000014063377779487122345_">
		<use xlink:href="#SVGID_1_"  style="overflow:visible;"/>
	</clipPath>
	<g style="clip-path:url(#SVGID_00000180365829920998031290000014063377779487122345_);">
		<path class="st1" d="M7.4,16.9H0.7v-1.3h6.7V16.9z M6.1,12.9H0.7v1.3h5.3V12.9z M4.7,10.2h-4v1.3h4V10.2z M8.7,0.9
			c-2.1,0-4.2,0.8-5.7,2.3C1.6,4.7,0.7,6.7,0.7,8.9h1.3c0-1.3,0.4-2.6,1.1-3.7c0.7-1.1,1.8-2,3-2.5C7.4,2.2,8.7,2.1,10,2.3
			c1.3,0.3,2.5,0.9,3.4,1.8c0.9,0.9,1.6,2.1,1.8,3.4c0.3,1.3,0.1,2.6-0.4,3.9c-0.5,1.2-1.4,2.3-2.5,3c-1.1,0.7-2.4,1.1-3.7,1.1v1.3
			c2.1,0,4.2-0.8,5.7-2.3s2.3-3.5,2.3-5.7c0-2.1-0.8-4.2-2.3-5.7C12.9,1.7,10.8,0.9,8.7,0.9L8.7,0.9z M8.1,5.5v3.6l2.2,2.2l0.9-0.9
			L9.4,8.6V5.5H8.1z"/>
	</g>
</g>
</svg>
