<?xml version="1.0" encoding="utf-8"?>
<!-- Generator: Adobe Illustrator 27.6.1, SVG Export Plug-In . SVG Version: 6.00 Build 0)  -->
<svg version="1.1" id="Layer_1" xmlns="http://www.w3.org/2000/svg" xmlns:xlink="http://www.w3.org/1999/xlink" x="0px" y="0px"
	 viewBox="0 0 24 24" style="enable-background:new 0 0 24 24;" xml:space="preserve">
<style type="text/css">
	.st0{fill:#FFFFFF;}
</style>
<g>
	<path class="st0" d="M18.16,15.27c-1.01-0.86-2.03-1.39-3.03-0.52l-0.6,0.52c-0.44,0.38-1.25,2.15-4.38-1.46
		c-3.13-3.6-1.27-4.16-0.83-4.53l0.6-0.52c0.99-0.86,0.62-1.95-0.1-3.07L9.4,5.01C8.68,3.9,7.9,3.16,6.9,4.02L6.37,4.49
		C5.93,4.81,4.7,5.85,4.4,7.83c-0.36,2.37,0.77,5.09,3.36,8.07c2.59,2.98,5.12,4.48,7.52,4.45c2-0.02,3.2-1.09,3.58-1.48l0.54-0.47
		c0.99-0.86,0.38-1.74-0.63-2.6L18.16,15.27z"/>
</g>
</svg>
