<?xml version="1.0" encoding="utf-8"?>
<!-- Generator: Adobe Illustrator 27.6.1, SVG Export Plug-In . SVG Version: 6.00 Build 0)  -->
<svg version="1.1" id="Layer_1" xmlns="http://www.w3.org/2000/svg" xmlns:xlink="http://www.w3.org/1999/xlink" x="0px" y="0px"
	 viewBox="0 0 24 24" style="enable-background:new 0 0 24 24;" xml:space="preserve">
<style type="text/css">
	.st0{fill-rule:evenodd;clip-rule:evenodd;fill:#FFFFFF;}
</style>
<path class="st0" d="M17.88,5.93c-1.6-1.6-3.73-2.49-6-2.49c-4.67,0-8.48,3.8-8.48,8.48c0,1.49,0.39,2.95,1.13,4.24l-1.2,4.39
	l4.49-1.18c1.24,0.68,2.63,1.03,4.05,1.03h0c4.67,0,8.48-3.8,8.48-8.48C20.36,9.66,19.48,7.53,17.88,5.93z M11.89,18.98L11.89,18.98
	c-1.27,0-2.51-0.34-3.59-0.98l-0.26-0.15l-2.67,0.7l0.71-2.6l-0.17-0.27c-0.71-1.12-1.08-2.42-1.08-3.75c0-3.88,3.16-7.05,7.05-7.05
	c1.88,0,3.65,0.73,4.98,2.07s2.06,3.1,2.06,4.98C18.93,15.81,15.77,18.98,11.89,18.98z M15.75,13.7c-0.21-0.11-1.25-0.62-1.45-0.69
	c-0.19-0.07-0.34-0.11-0.48,0.11c-0.14,0.21-0.55,0.69-0.67,0.83c-0.12,0.14-0.25,0.16-0.46,0.05c-0.21-0.11-0.89-0.33-1.7-1.05
	c-0.63-0.56-1.05-1.26-1.18-1.47c-0.12-0.21,0-0.32,0.09-0.43c0.23-0.28,0.46-0.58,0.53-0.72c0.07-0.14,0.04-0.27-0.02-0.37
	C10.37,9.85,9.94,8.8,9.77,8.38C9.6,7.97,9.42,8.02,9.29,8.02C9.17,8.01,9.03,8.01,8.88,8.01c-0.14,0-0.37,0.05-0.56,0.27
	C8.13,8.49,7.58,9,7.58,10.04s0.76,2.05,0.86,2.19c0.11,0.14,1.49,2.28,3.62,3.2c0.51,0.22,0.9,0.35,1.21,0.45
	c0.51,0.16,0.97,0.14,1.33,0.08c0.41-0.06,1.25-0.51,1.43-1.01c0.18-0.49,0.18-0.92,0.12-1.01C16.1,13.86,15.96,13.8,15.75,13.7z"/>
</svg>
